# This file uses meters as units for non-parametric coordinates.

mtllib EnfermariaChao.mtl
g default
v -993.660972 3.171142 745.122427
v 993.660972 3.171142 745.122427
v -993.660972 13.695831 745.122427
v 993.660972 13.695831 745.122427
v -993.660972 13.695831 -745.122427
v 993.660972 13.695831 -745.122427
v -993.660972 3.171142 -745.122427
v 993.660972 3.171142 -745.122427
vt -3.458789 -0.063838
vt 1.003816 -0.063836
vt 1.003816 -0.001761
vt -3.458791 -0.001763
vt -3.458789 3.903017
vt 1.003816 3.903017
vt 1.084666 -0.001329
vt 1.084670 3.902583
vt -3.524393 3.903873
vt -3.524395 -0.002617
vt 1.003816 3.978081
vt -3.458789 3.978081
vn 0.000000 0.000000 1.000000
vn 0.000000 0.000000 1.000000
vn 0.000000 0.000000 1.000000
vn 0.000000 0.000000 1.000000
vn 0.000000 1.000000 0.000000
vn 0.000000 1.000000 0.000000
vn 0.000000 1.000000 0.000000
vn 0.000000 1.000000 0.000000
vn 0.000000 0.000000 -1.000000
vn 0.000000 0.000000 -1.000000
vn 0.000000 0.000000 -1.000000
vn 0.000000 0.000000 -1.000000
vn 1.000000 0.000000 0.000000
vn 1.000000 0.000000 0.000000
vn 1.000000 0.000000 0.000000
vn 1.000000 0.000000 0.000000
vn -1.000000 0.000000 0.000000
vn -1.000000 0.000000 0.000000
vn -1.000000 0.000000 0.000000
vn -1.000000 0.000000 0.000000
s off
g Chão Chão
usemtl initialShadingGroup
f 1/1/1 2/2/2 4/3/3 3/4/4
f 3/4/5 4/3/6 6/6/7 5/5/8
f 5/5/9 6/6/10 8/11/11 7/12/12
f 2/7/13 8/8/14 6/6/15 4/3/16
f 7/9/17 1/10/18 3/4/19 5/5/20
