# This file uses meters as units for non-parametric coordinates.

mtllib EnfermariaTeto.mtl
g default
v -1012.500000 313.664848 762.499651
v 1012.500000 313.664848 762.499651
v -1012.500000 328.931246 762.499651
v 1012.500000 328.931246 762.499651
v -1012.500000 328.931246 -762.499651
v 1012.500000 328.931246 -762.499651
v -1012.500000 313.664848 -762.499651
v 1012.500000 313.664848 -762.499651
v -933.208563 328.931246 702.786405
v 933.208563 328.931246 702.786405
v 933.208563 328.931246 -702.786405
v -933.208563 328.931246 -702.786405
v -169.237098 554.914028 127.450131
v 169.237098 554.914028 127.450131
v 169.237098 554.914028 -127.450131
v -169.237098 554.914028 -127.450131
vt 0.205965 0.431949
vt 0.814388 0.431949
vt 0.814388 0.436536
vt 0.205965 0.436536
vt 0.205965 0.969845
vt 0.814388 0.969845
vt 0.290172 0.385996
vt 0.754957 0.385996
vt 0.754957 0.035973
vt 0.290172 0.035973
vt 0.822967 0.436316
vt 0.822968 0.970064
vt 0.462212 0.667082
vt 0.558179 0.667082
vt 0.558179 0.739353
vt 0.462212 0.739353
vt 0.774787 0.503958
vt 0.245604 0.503958
vt 0.774787 0.902478
vt 0.245604 0.902478
vt 0.198069 0.969745
vt 0.198069 0.436636
vt 0.814388 0.975401
vt 0.205965 0.975401
vt 0.229789 0.492034
vt 0.229789 0.914346
vt 0.790564 0.914346
vt 0.790564 0.492034
vn 0.000000 0.000000 1.000000
vn 0.000000 0.000000 1.000000
vn 0.000000 0.000000 1.000000
vn 0.000000 0.000000 1.000000
vn 0.000000 1.000000 0.000000
vn 0.000000 1.000000 0.000000
vn 0.000000 1.000000 0.000000
vn 0.000000 1.000000 0.000000
vn 0.000000 0.000000 -1.000000
vn 0.000000 0.000000 -1.000000
vn 0.000000 0.000000 -1.000000
vn 0.000000 0.000000 -1.000000
vn 0.000000 -1.000000 0.000000
vn 0.000000 -1.000000 0.000000
vn 0.000000 -1.000000 0.000000
vn 0.000000 -1.000000 0.000000
vn 1.000000 0.000000 0.000000
vn 1.000000 0.000000 0.000000
vn 1.000000 0.000000 0.000000
vn 1.000000 0.000000 0.000000
vn -1.000000 0.000000 0.000000
vn -1.000000 0.000000 0.000000
vn -1.000000 0.000000 0.000000
vn -1.000000 0.000000 0.000000
vn 0.000000 1.000000 0.000000
vn 0.000000 1.000000 0.000000
vn 0.000000 1.000000 0.000000
vn 0.000000 1.000000 0.000000
vn 0.000000 1.000000 0.000000
vn 0.000000 1.000000 0.000000
vn 0.000000 1.000000 0.000000
vn 0.000000 1.000000 0.000000
vn 0.000000 1.000000 -0.000000
vn 0.000000 1.000000 -0.000000
vn 0.000000 1.000000 -0.000000
vn 0.000000 1.000000 -0.000000
vn 0.000000 1.000000 0.000000
vn 0.000000 1.000000 0.000000
vn 0.000000 1.000000 0.000000
vn 0.000000 1.000000 0.000000
vn 0.000000 0.930775 0.365593
vn 0.000000 0.930775 0.365593
vn 0.000000 0.930775 0.365593
vn 0.000000 0.930775 0.365593
vn 0.283651 0.958928 0.000000
vn 0.283651 0.958928 0.000000
vn 0.283651 0.958928 0.000000
vn 0.283651 0.958928 0.000000
vn 0.000000 0.930775 -0.365593
vn 0.000000 0.930775 -0.365593
vn 0.000000 0.930775 -0.365593
vn 0.000000 0.930775 -0.365593
vn -0.283651 0.958928 0.000000
vn -0.283651 0.958928 0.000000
vn -0.283651 0.958928 0.000000
vn -0.283651 0.958928 0.000000
s off
g Teto Teto
usemtl lambert2SG
f 1/1/1 2/2/2 4/3/3 3/4/4
f 13/13/5 14/14/6 15/15/7 16/16/8
f 5/5/9 6/6/10 8/23/11 7/24/12
f 7/7/13 8/8/14 2/9/15 1/10/16
f 2/11/17 8/12/18 6/6/19 4/3/20
f 7/21/21 1/22/22 3/4/23 5/5/24
f 3/4/25 4/3/26 10/28/27 9/25/28
f 4/3/29 6/6/30 11/27/31 10/28/32
f 6/6/33 5/5/34 12/26/35 11/27/36
f 5/5/37 3/4/38 9/25/39 12/26/40
f 9/18/41 10/17/42 14/14/43 13/13/44
f 10/17/45 11/19/46 15/15/47 14/14/48
f 11/19/49 12/20/50 16/16/51 15/15/52
f 12/20/53 9/18/54 13/13/55 16/16/56
